# xmcd
# 
# Track frame offsets:
#     150
#     25893
#     43986
#     62604
#     87700
#     102807
#     126896
#     150121
# 
# Disc length: 2237
# 
# Revision: 0
# Processed by: cddbd v1.5.2PL0 Copyright (c) Steve Scherf et al.
# Submitted via: fre:ac v1.0.31
# 
DISCID=6008bb08
DTITLE=Edoardo Bennato - ... io c'ero... Concerto Live Roma, 26 Gennaio 1976 - Secondo tempo [CD2)
DYEAR=1976
DGENRE=Pop
TTITLE0=Feste di piazza
TTITLE1=Non farti cadere le braccia
TTITLE2=Un giorno credi
TTITLE3=Cantautore
TTITLE4=Salviamo il salvabile
TTITLE5=Affacciati affacciati
TTITLE6=Lei era meglio di te
TTITLE7=Meno male che adesso non c'è Nerone
EXTD=
EXTT0=
EXTT1=
EXTT2=
EXTT3=
EXTT4=
EXTT5=
EXTT6=
EXTT7=
PLAYORDER=
